<svg width="130" height="67" viewBox="0 0 130 67" fill="none" xmlns="http://www.w3.org/2000/svg">
<path d="M0 0H130V67H0V0Z" fill="white"/>
<path d="M37.2642 41V26.4545H40.3395V38.4645H46.5753V41H37.2642Z" fill="black"/>
<path d="M61.4119 33.7273C61.4119 35.3134 61.1113 36.6629 60.5099 37.7756C59.9134 38.8883 59.099 39.7382 58.0668 40.3253C57.0393 40.9077 55.884 41.1989 54.6009 41.1989C53.3082 41.1989 52.1482 40.9053 51.1207 40.3182C50.0933 39.7311 49.2812 38.8812 48.6847 37.7685C48.0881 36.6558 47.7898 35.3087 47.7898 33.7273C47.7898 32.1411 48.0881 30.7917 48.6847 29.679C49.2812 28.5663 50.0933 27.7187 51.1207 27.1364C52.1482 26.5492 53.3082 26.2557 54.6009 26.2557C55.884 26.2557 57.0393 26.5492 58.0668 27.1364C59.099 27.7187 59.9134 28.5663 60.5099 29.679C61.1113 30.7917 61.4119 32.1411 61.4119 33.7273ZM58.294 33.7273C58.294 32.6998 58.1402 31.8333 57.8324 31.1278C57.5294 30.4223 57.1009 29.8873 56.5469 29.5227C55.9929 29.1581 55.3442 28.9759 54.6009 28.9759C53.8575 28.9759 53.2088 29.1581 52.6548 29.5227C52.1009 29.8873 51.67 30.4223 51.3622 31.1278C51.0592 31.8333 50.9077 32.6998 50.9077 33.7273C50.9077 34.7547 51.0592 35.6212 51.3622 36.3267C51.67 37.0322 52.1009 37.5672 52.6548 37.9318C53.2088 38.2964 53.8575 38.4787 54.6009 38.4787C55.3442 38.4787 55.9929 38.2964 56.5469 37.9318C57.1009 37.5672 57.5294 37.0322 57.8324 36.3267C58.1402 35.6212 58.294 34.7547 58.294 33.7273Z" fill="black"/>
<path d="M73.3349 31.1562C73.2354 30.8106 73.0958 30.5052 72.9158 30.2401C72.7359 29.9702 72.5157 29.7429 72.2553 29.5582C71.9996 29.3688 71.7061 29.2244 71.3746 29.125C71.0479 29.0256 70.6857 28.9759 70.288 28.9759C69.5446 28.9759 68.8912 29.1605 68.3278 29.5298C67.7691 29.8991 67.3335 30.4366 67.021 31.142C66.7085 31.8428 66.5522 32.6998 66.5522 33.7131C66.5522 34.7263 66.7061 35.5881 67.0138 36.2983C67.3216 37.0085 67.7572 37.5507 68.3207 37.9247C68.8841 38.294 69.5494 38.4787 70.3164 38.4787C71.0124 38.4787 71.6067 38.3556 72.0991 38.1094C72.5962 37.8584 72.975 37.5057 73.2354 37.0511C73.5006 36.5966 73.6332 36.0592 73.6332 35.4389L74.2582 35.5312H70.5082V33.2159H76.5948V35.0483C76.5948 36.3267 76.3249 37.4252 75.7852 38.3438C75.2454 39.2576 74.502 39.9631 73.555 40.4602C72.6081 40.9527 71.5238 41.1989 70.3022 41.1989C68.9386 41.1989 67.7406 40.8982 66.7085 40.2969C65.6763 39.6908 64.8713 38.8314 64.2937 37.7188C63.7208 36.6013 63.4343 35.2756 63.4343 33.7415C63.4343 32.5625 63.6048 31.5114 63.9457 30.5881C64.2913 29.66 64.7743 28.8741 65.3945 28.2301C66.0148 27.5862 66.7369 27.0961 67.5607 26.7599C68.3846 26.4238 69.2771 26.2557 70.2383 26.2557C71.0621 26.2557 71.8292 26.3764 72.5394 26.6179C73.2496 26.8546 73.8794 27.1908 74.4286 27.6264C74.9826 28.062 75.4348 28.5805 75.7852 29.1818C76.1355 29.7784 76.3604 30.4366 76.4599 31.1562H73.3349Z" fill="black"/>
<path d="M92.2713 33.7273C92.2713 35.3134 91.9706 36.6629 91.3693 37.7756C90.7727 38.8883 89.9583 39.7382 88.9261 40.3253C87.8987 40.9077 86.7434 41.1989 85.4602 41.1989C84.1676 41.1989 83.0076 40.9053 81.9801 40.3182C80.9526 39.7311 80.1406 38.8812 79.544 37.7685C78.9474 36.6558 78.6491 35.3087 78.6491 33.7273C78.6491 32.1411 78.9474 30.7917 79.544 29.679C80.1406 28.5663 80.9526 27.7187 81.9801 27.1364C83.0076 26.5492 84.1676 26.2557 85.4602 26.2557C86.7434 26.2557 87.8987 26.5492 88.9261 27.1364C89.9583 27.7187 90.7727 28.5663 91.3693 29.679C91.9706 30.7917 92.2713 32.1411 92.2713 33.7273ZM89.1534 33.7273C89.1534 32.6998 88.9995 31.8333 88.6918 31.1278C88.3887 30.4223 87.9602 29.8873 87.4062 29.5227C86.8523 29.1581 86.2036 28.9759 85.4602 28.9759C84.7169 28.9759 84.0682 29.1581 83.5142 29.5227C82.9602 29.8873 82.5294 30.4223 82.2216 31.1278C81.9186 31.8333 81.767 32.6998 81.767 33.7273C81.767 34.7547 81.9186 35.6212 82.2216 36.3267C82.5294 37.0322 82.9602 37.5672 83.5142 37.9318C84.0682 38.2964 84.7169 38.4787 85.4602 38.4787C86.2036 38.4787 86.8523 38.2964 87.4062 37.9318C87.9602 37.5672 88.3887 37.0322 88.6918 36.3267C88.9995 35.6212 89.1534 34.7547 89.1534 33.7273Z" fill="black"/>
</svg>
